<svg xmlns="http://www.w3.org/2000/svg" xmlns:xlink="http://www.w3.org/1999/xlink" width="1512" zoomAndPan="magnify" viewBox="0 0 960 197.999984" height="380" preserveAspectRatio="xMidYMid meet" version="1.0"><defs><filter x="0%" y="0%" width="100%" height="100%" id="4bfff72e10"><feColorMatrix values="0 0 0 0 1 0 0 0 0 1 0 0 0 0 1 0 0 0 1 0" color-interpolation-filters="sRGB"/></filter><g/><clipPath id="5cb521ee83"><path d="M 85 75 L 240 75 L 240 198 L 85 198 Z M 85 75 " clip-rule="nonzero"/></clipPath><clipPath id="22d7356240"><path d="M 53.953125 141.789062 L 173.214844 44.632812 L 270.371094 163.894531 L 151.109375 261.050781 Z M 53.953125 141.789062 " clip-rule="nonzero"/></clipPath><clipPath id="b8ff145e71"><path d="M 113.585938 93.210938 C 80.652344 120.039062 75.703125 168.488281 102.53125 201.421875 C 129.359375 234.355469 177.804688 239.304688 210.738281 212.472656 C 243.671875 185.644531 248.621094 137.199219 221.792969 104.265625 C 194.964844 71.332031 146.519531 66.382812 113.585938 93.210938 Z M 113.585938 93.210938 " clip-rule="nonzero"/></clipPath><clipPath id="6d284c6bdb"><path d="M 0 0 L 155 0 L 155 123 L 0 123 Z M 0 0 " clip-rule="nonzero"/></clipPath><clipPath id="15d6366ff1"><path d="M -31.046875 66.789062 L 88.214844 -30.367188 L 185.371094 88.894531 L 66.109375 186.050781 Z M -31.046875 66.789062 " clip-rule="nonzero"/></clipPath><clipPath id="0683d25888"><path d="M 28.585938 18.210938 C -4.347656 45.039062 -9.296875 93.488281 17.53125 126.421875 C 44.359375 159.355469 92.804688 164.304688 125.738281 137.472656 C 158.671875 110.644531 163.621094 62.199219 136.792969 29.265625 C 109.964844 -3.667969 61.519531 -8.617188 28.585938 18.210938 Z M 28.585938 18.210938 " clip-rule="nonzero"/></clipPath><clipPath id="4a7d6fc163"><rect x="0" width="155" y="0" height="123"/></clipPath><mask id="be9310eee1"><g filter="url(#4bfff72e10)"><rect x="-96" width="1152" fill="#000000" y="-19.799998" height="237.599981" fill-opacity="0.8"/></g></mask><clipPath id="8d9b01c59d"><path d="M 49 48 L 203 48 L 203 171 L 49 171 Z M 49 48 " clip-rule="nonzero"/></clipPath><clipPath id="b7b439b881"><path d="M 17.871094 114.789062 L 137.136719 17.632812 L 234.289062 136.894531 L 115.027344 234.050781 Z M 17.871094 114.789062 " clip-rule="nonzero"/></clipPath><clipPath id="0b2f8acb05"><path d="M 77.503906 66.210938 C 44.570312 93.039062 39.621094 141.488281 66.449219 174.421875 C 93.277344 207.355469 141.726562 212.304688 174.660156 185.472656 C 207.59375 158.644531 212.542969 110.199219 185.710938 77.265625 C 158.882812 44.332031 110.4375 39.382812 77.503906 66.210938 Z M 77.503906 66.210938 " clip-rule="nonzero"/></clipPath><clipPath id="afceae42d7"><path d="M 0 0 L 154 0 L 154 123 L 0 123 Z M 0 0 " clip-rule="nonzero"/></clipPath><clipPath id="cd6a69ec3a"><path d="M -31.128906 66.789062 L 88.136719 -30.367188 L 185.289062 88.894531 L 66.027344 186.050781 Z M -31.128906 66.789062 " clip-rule="nonzero"/></clipPath><clipPath id="8c507f8d34"><path d="M 28.503906 18.210938 C -4.429688 45.039062 -9.378906 93.488281 17.449219 126.421875 C 44.277344 159.355469 92.726562 164.304688 125.660156 137.472656 C 158.59375 110.644531 163.542969 62.199219 136.710938 29.265625 C 109.882812 -3.667969 61.4375 -8.617188 28.503906 18.210938 Z M 28.503906 18.210938 " clip-rule="nonzero"/></clipPath><clipPath id="04a99ab0f0"><rect x="0" width="154" y="0" height="123"/></clipPath><clipPath id="1fcba11a2f"><path d="M 49 48 L 203 48 L 203 171 L 49 171 Z M 49 48 " clip-rule="nonzero"/></clipPath><clipPath id="add604b482"><path d="M 17.871094 114.789062 L 137.074219 17.683594 L 234.179688 136.886719 L 114.976562 233.992188 Z M 17.871094 114.789062 " clip-rule="nonzero"/></clipPath><clipPath id="370a9a26bc"><path d="M 17.871094 114.789062 L 137.128906 17.636719 L 234.28125 136.894531 L 115.023438 234.046875 Z M 17.871094 114.789062 " clip-rule="nonzero"/></clipPath><clipPath id="266a1c77fa"><path d="M 77.5 66.214844 C 44.570312 93.039062 39.621094 141.484375 66.449219 174.417969 C 93.273438 207.351562 141.71875 212.296875 174.652344 185.472656 C 207.582031 158.644531 212.53125 110.199219 185.703125 77.265625 C 158.878906 44.335938 110.433594 39.386719 77.5 66.214844 Z M 77.5 66.214844 " clip-rule="nonzero"/></clipPath><clipPath id="ec01d181c5"><rect x="0" width="252" y="0" height="171"/></clipPath><mask id="36e375f1b4"><g filter="url(#4bfff72e10)"><rect x="-96" width="1152" fill="#000000" y="-19.799998" height="237.599981" fill-opacity="0.69"/></g></mask><clipPath id="40b432a62f"><path d="M 32 31 L 186 31 L 186 154 L 32 154 Z M 32 31 " clip-rule="nonzero"/></clipPath><clipPath id="c15a91772a"><path d="M 0.789062 97.789062 L 120.054688 0.632812 L 217.210938 119.894531 L 97.945312 217.050781 Z M 0.789062 97.789062 " clip-rule="nonzero"/></clipPath><clipPath id="8f2225fc41"><path d="M 60.421875 49.210938 C 27.488281 76.039062 22.539062 124.488281 49.367188 157.421875 C 76.199219 190.355469 124.644531 195.304688 157.578125 168.472656 C 190.511719 141.644531 195.460938 93.199219 168.632812 60.265625 C 141.804688 27.332031 93.355469 22.382812 60.421875 49.210938 Z M 60.421875 49.210938 " clip-rule="nonzero"/></clipPath><clipPath id="1bb384d6b2"><path d="M 0 0 L 154 0 L 154 123 L 0 123 Z M 0 0 " clip-rule="nonzero"/></clipPath><clipPath id="b45be746c4"><path d="M -31.210938 66.789062 L 88.054688 -30.367188 L 185.210938 88.894531 L 65.945312 186.050781 Z M -31.210938 66.789062 " clip-rule="nonzero"/></clipPath><clipPath id="4db5bb177f"><path d="M 28.421875 18.210938 C -4.511719 45.039062 -9.460938 93.488281 17.367188 126.421875 C 44.199219 159.355469 92.644531 164.304688 125.578125 137.472656 C 158.511719 110.644531 163.460938 62.199219 136.632812 29.265625 C 109.804688 -3.667969 61.355469 -8.617188 28.421875 18.210938 Z M 28.421875 18.210938 " clip-rule="nonzero"/></clipPath><clipPath id="43486ebb7b"><rect x="0" width="154" y="0" height="123"/></clipPath><clipPath id="a6f3578db9"><rect x="0" width="218" y="0" height="154"/></clipPath></defs><rect x="-96" width="1152" fill="#ffffff" y="-19.799998" height="237.599981" fill-opacity="1"/><rect x="-96" width="1152" fill="#ffffff" y="-19.799998" height="237.599981" fill-opacity="1"/><g fill="#c8bc8a" fill-opacity="1"><g transform="translate(490.383195, 186.749967)"><g><path d="M 40.3125 -78.4375 C 45.082031 -78.4375 49.003906 -77.726562 52.078125 -76.3125 C 55.160156 -74.90625 57.898438 -73.257812 60.296875 -71.375 C 61.742188 -70.289062 62.847656 -70.164062 63.609375 -71 C 64.367188 -71.832031 64.894531 -73.804688 65.1875 -76.921875 L 67.6875 -76.921875 C 67.539062 -74.234375 67.429688 -70.96875 67.359375 -67.125 C 67.285156 -63.289062 67.25 -58.226562 67.25 -51.9375 L 64.75 -51.9375 C 64.238281 -55.050781 63.765625 -57.53125 63.328125 -59.375 C 62.898438 -61.21875 62.378906 -62.789062 61.765625 -64.09375 C 61.148438 -65.394531 60.332031 -66.703125 59.3125 -68.015625 C 57.070312 -70.984375 54.25 -73.132812 50.84375 -74.46875 C 47.4375 -75.8125 43.851562 -76.484375 40.09375 -76.484375 C 36.539062 -76.484375 33.332031 -75.59375 30.46875 -73.8125 C 27.613281 -72.039062 25.148438 -69.488281 23.078125 -66.15625 C 21.015625 -62.832031 19.421875 -58.816406 18.296875 -54.109375 C 17.179688 -49.398438 16.625 -44.109375 16.625 -38.234375 C 16.625 -32.148438 17.238281 -26.769531 18.46875 -22.09375 C 19.695312 -17.425781 21.414062 -13.5 23.625 -10.3125 C 25.832031 -7.132812 28.4375 -4.726562 31.4375 -3.09375 C 34.445312 -1.46875 37.691406 -0.65625 41.171875 -0.65625 C 44.429688 -0.65625 47.832031 -1.304688 51.375 -2.609375 C 54.925781 -3.910156 57.71875 -6.007812 59.75 -8.90625 C 61.34375 -11.007812 62.445312 -13.289062 63.0625 -15.75 C 63.675781 -18.21875 64.238281 -21.660156 64.75 -26.078125 L 67.25 -26.078125 C 67.25 -19.484375 67.285156 -14.175781 67.359375 -10.15625 C 67.429688 -6.132812 67.539062 -2.75 67.6875 0 L 65.1875 0 C 64.894531 -3.113281 64.40625 -5.066406 63.71875 -5.859375 C 63.03125 -6.660156 61.890625 -6.554688 60.296875 -5.546875 C 57.617188 -3.660156 54.773438 -2.007812 51.765625 -0.59375 C 48.765625 0.8125 44.910156 1.515625 40.203125 1.515625 C 33.316406 1.515625 27.285156 -0.0390625 22.109375 -3.15625 C 16.929688 -6.269531 12.910156 -10.757812 10.046875 -16.625 C 7.191406 -22.488281 5.765625 -29.550781 5.765625 -37.8125 C 5.765625 -45.914062 7.25 -53.007812 10.21875 -59.09375 C 13.1875 -65.175781 17.257812 -69.921875 22.4375 -73.328125 C 27.613281 -76.734375 33.570312 -78.4375 40.3125 -78.4375 Z M 40.3125 -78.4375 "/></g></g></g><g fill="#c8bc8a" fill-opacity="1"><g transform="translate(569.14226, 186.749967)"><g><path d="M 49.96875 0 L 49.96875 -2.171875 C 52.4375 -2.316406 54.300781 -2.601562 55.5625 -3.03125 C 56.832031 -3.46875 57.6875 -4.335938 58.125 -5.640625 C 58.5625 -6.953125 58.78125 -8.910156 58.78125 -11.515625 L 58.78125 -65.40625 C 58.78125 -68.082031 58.5625 -70.050781 58.125 -71.3125 C 57.6875 -72.582031 56.832031 -73.453125 55.5625 -73.921875 C 54.300781 -74.398438 52.4375 -74.675781 49.96875 -74.75 L 49.96875 -76.921875 C 51.632812 -76.847656 53.734375 -76.773438 56.265625 -76.703125 C 58.804688 -76.628906 61.304688 -76.59375 63.765625 -76.59375 C 66.597656 -76.59375 69.242188 -76.628906 71.703125 -76.703125 C 74.160156 -76.773438 76.148438 -76.847656 77.671875 -76.921875 L 77.671875 -74.75 C 75.210938 -74.675781 73.347656 -74.398438 72.078125 -73.921875 C 70.816406 -73.453125 69.96875 -72.582031 69.53125 -71.3125 C 69.09375 -70.050781 68.875 -68.082031 68.875 -65.40625 L 68.875 -11.515625 C 68.875 -8.910156 69.09375 -6.953125 69.53125 -5.640625 C 69.96875 -4.335938 70.816406 -3.46875 72.078125 -3.03125 C 73.347656 -2.601562 75.210938 -2.316406 77.671875 -2.171875 L 77.671875 0 C 76.148438 -0.144531 74.160156 -0.234375 71.703125 -0.265625 C 69.242188 -0.304688 66.597656 -0.328125 63.765625 -0.328125 C 61.304688 -0.328125 58.804688 -0.304688 56.265625 -0.265625 C 53.734375 -0.234375 51.632812 -0.144531 49.96875 0 Z M 4.5625 0 L 4.5625 -2.171875 C 7.019531 -2.316406 8.882812 -2.601562 10.15625 -3.03125 C 11.425781 -3.46875 12.273438 -4.335938 12.703125 -5.640625 C 13.140625 -6.953125 13.359375 -8.910156 13.359375 -11.515625 L 13.359375 -65.40625 C 13.359375 -68.082031 13.140625 -70.050781 12.703125 -71.3125 C 12.273438 -72.582031 11.425781 -73.453125 10.15625 -73.921875 C 8.882812 -74.398438 7.019531 -74.675781 4.5625 -74.75 L 4.5625 -76.921875 C 6.082031 -76.847656 8.070312 -76.773438 10.53125 -76.703125 C 13 -76.628906 15.644531 -76.59375 18.46875 -76.59375 C 21 -76.59375 23.515625 -76.628906 26.015625 -76.703125 C 28.515625 -76.773438 30.597656 -76.847656 32.265625 -76.921875 L 32.265625 -74.75 C 29.804688 -74.675781 27.941406 -74.398438 26.671875 -73.921875 C 25.398438 -73.453125 24.546875 -72.582031 24.109375 -71.3125 C 23.679688 -70.050781 23.46875 -68.082031 23.46875 -65.40625 L 23.46875 -11.515625 C 23.46875 -8.910156 23.679688 -6.953125 24.109375 -5.640625 C 24.546875 -4.335938 25.398438 -3.46875 26.671875 -3.03125 C 27.941406 -2.601562 29.804688 -2.316406 32.265625 -2.171875 L 32.265625 0 C 30.597656 -0.144531 28.515625 -0.234375 26.015625 -0.265625 C 23.515625 -0.304688 21 -0.328125 18.46875 -0.328125 C 15.644531 -0.328125 13 -0.304688 10.53125 -0.265625 C 8.070312 -0.234375 6.082031 -0.144531 4.5625 0 Z M 19.65625 -37.59375 L 19.65625 -39.765625 L 62.578125 -39.765625 L 62.578125 -37.59375 Z M 19.65625 -37.59375 "/></g></g></g><g fill="#c8bc8a" fill-opacity="1"><g transform="translate(655.396999, 186.749967)"><g/></g></g><g fill="#c8bc8a" fill-opacity="1"><g transform="translate(686.466239, 186.749967)"><g><path d="M 34.21875 -76.921875 C 47.1875 -76.921875 56.820312 -73.675781 63.125 -67.1875 C 69.425781 -60.707031 72.578125 -51.421875 72.578125 -39.328125 C 72.578125 -31.429688 71.035156 -24.53125 67.953125 -18.625 C 64.878906 -12.726562 60.40625 -8.148438 54.53125 -4.890625 C 48.664062 -1.628906 41.570312 0 33.25 0 C 32.15625 0 30.703125 -0.0351562 28.890625 -0.109375 C 27.085938 -0.179688 25.222656 -0.234375 23.296875 -0.265625 C 21.378906 -0.304688 19.625 -0.328125 18.03125 -0.328125 C 15.5 -0.328125 13 -0.304688 10.53125 -0.265625 C 8.070312 -0.234375 6.082031 -0.144531 4.5625 0 L 4.5625 -2.171875 C 7.019531 -2.316406 8.882812 -2.601562 10.15625 -3.03125 C 11.425781 -3.46875 12.273438 -4.335938 12.703125 -5.640625 C 13.140625 -6.953125 13.359375 -8.910156 13.359375 -11.515625 L 13.359375 -65.40625 C 13.359375 -68.082031 13.140625 -70.050781 12.703125 -71.3125 C 12.273438 -72.582031 11.425781 -73.453125 10.15625 -73.921875 C 8.882812 -74.398438 7.019531 -74.675781 4.5625 -74.75 L 4.5625 -76.921875 C 6.082031 -76.847656 8.070312 -76.753906 10.53125 -76.640625 C 13 -76.535156 15.425781 -76.519531 17.8125 -76.59375 C 20.351562 -76.664062 23.21875 -76.738281 26.40625 -76.8125 C 29.59375 -76.882812 32.195312 -76.921875 34.21875 -76.921875 Z M 31.5 -74.96875 C 28.175781 -74.96875 26.003906 -74.347656 24.984375 -73.109375 C 23.972656 -71.878906 23.46875 -69.382812 23.46875 -65.625 L 23.46875 -11.296875 C 23.46875 -7.535156 23.988281 -5.035156 25.03125 -3.796875 C 26.082031 -2.566406 28.273438 -1.953125 31.609375 -1.953125 C 39.503906 -1.953125 45.625 -3.378906 49.96875 -6.234375 C 54.320312 -9.097656 57.363281 -13.28125 59.09375 -18.78125 C 60.832031 -24.289062 61.703125 -30.992188 61.703125 -38.890625 C 61.703125 -47.003906 60.742188 -53.722656 58.828125 -59.046875 C 56.910156 -64.367188 53.757812 -68.351562 49.375 -71 C 44.988281 -73.644531 39.03125 -74.96875 31.5 -74.96875 Z M 31.5 -74.96875 "/></g></g></g><g fill="#c8bc8a" fill-opacity="1"><g transform="translate(769.027478, 186.749967)"><g><path d="M 15.53125 -83.109375 C 17.414062 -83.109375 19.046875 -82.421875 20.421875 -81.046875 C 21.796875 -79.671875 22.484375 -78.039062 22.484375 -76.15625 C 22.484375 -74.269531 21.796875 -72.640625 20.421875 -71.265625 C 19.046875 -69.890625 17.414062 -69.203125 15.53125 -69.203125 C 13.65625 -69.203125 12.023438 -69.890625 10.640625 -71.265625 C 9.265625 -72.640625 8.578125 -74.269531 8.578125 -76.15625 C 8.578125 -78.039062 9.265625 -79.671875 10.640625 -81.046875 C 12.023438 -82.421875 13.65625 -83.109375 15.53125 -83.109375 Z M 21.1875 -57.140625 L 21.1875 -10.109375 C 21.1875 -7.066406 21.816406 -5 23.078125 -3.90625 C 24.347656 -2.820312 26.46875 -2.28125 29.4375 -2.28125 L 29.4375 0 C 28.207031 -0.0703125 26.34375 -0.160156 23.84375 -0.265625 C 21.34375 -0.378906 18.828125 -0.4375 16.296875 -0.4375 C 13.835938 -0.4375 11.335938 -0.378906 8.796875 -0.265625 C 6.265625 -0.160156 4.382812 -0.0703125 3.15625 0 L 3.15625 -2.28125 C 6.125 -2.28125 8.238281 -2.820312 9.5 -3.90625 C 10.769531 -5 11.40625 -7.066406 11.40625 -10.109375 L 11.40625 -44.109375 C 11.40625 -47.367188 10.828125 -49.773438 9.671875 -51.328125 C 8.515625 -52.890625 6.34375 -53.671875 3.15625 -53.671875 L 3.15625 -55.953125 C 5.46875 -55.734375 7.710938 -55.625 9.890625 -55.625 C 11.984375 -55.625 13.988281 -55.75 15.90625 -56 C 17.832031 -56.257812 19.59375 -56.640625 21.1875 -57.140625 Z M 21.1875 -57.140625 "/></g></g></g><g fill="#c8bc8a" fill-opacity="1"><g transform="translate(804.876548, 186.749967)"><g><path d="M 23.140625 20.421875 C 19.296875 20.421875 15.671875 20.019531 12.265625 19.21875 C 8.867188 18.425781 6.140625 17.175781 4.078125 15.46875 C 2.015625 13.769531 0.984375 11.617188 0.984375 9.015625 C 0.984375 6.484375 1.992188 4.3125 4.015625 2.5 C 6.046875 0.6875 8.800781 -0.6875 12.28125 -1.625 L 12.921875 0.109375 C 11.328125 0.617188 10.0625 1.632812 9.125 3.15625 C 8.1875 4.675781 7.71875 6.375 7.71875 8.25 C 7.71875 11.582031 9.253906 14.132812 12.328125 15.90625 C 15.410156 17.6875 19.410156 18.578125 24.328125 18.578125 C 27.585938 18.578125 30.773438 18.160156 33.890625 17.328125 C 37.003906 16.492188 39.578125 15.097656 41.609375 13.140625 C 43.640625 11.191406 44.65625 8.625 44.65625 5.4375 C 44.65625 3.039062 43.800781 1.066406 42.09375 -0.484375 C 40.394531 -2.046875 37.046875 -2.828125 32.046875 -2.828125 L 24.015625 -2.828125 C 21.691406 -2.828125 19.441406 -3.003906 17.265625 -3.359375 C 15.097656 -3.722656 13.328125 -4.484375 11.953125 -5.640625 C 10.578125 -6.804688 9.890625 -8.582031 9.890625 -10.96875 C 9.890625 -13.4375 10.898438 -15.8125 12.921875 -18.09375 C 14.953125 -20.375 18.6875 -22.707031 24.125 -25.09375 L 25.421875 -24.125 C 22.960938 -22.8125 20.828125 -21.484375 19.015625 -20.140625 C 17.203125 -18.804688 16.296875 -17.234375 16.296875 -15.421875 C 16.296875 -13.109375 18.035156 -11.953125 21.515625 -11.953125 L 35.09375 -11.953125 C 38.132812 -11.953125 40.941406 -11.515625 43.515625 -10.640625 C 46.085938 -9.773438 48.164062 -8.398438 49.75 -6.515625 C 51.34375 -4.628906 52.140625 -2.164062 52.140625 0.875 C 52.140625 4.269531 51.050781 7.453125 48.875 10.421875 C 46.707031 13.398438 43.46875 15.8125 39.15625 17.65625 C 34.851562 19.5 29.515625 20.421875 23.140625 20.421875 Z M 23.6875 -23.140625 C 20.132812 -23.140625 16.910156 -23.734375 14.015625 -24.921875 C 11.117188 -26.117188 8.835938 -27.984375 7.171875 -30.515625 C 5.503906 -33.054688 4.671875 -36.320312 4.671875 -40.3125 C 4.671875 -44.289062 5.503906 -47.546875 7.171875 -50.078125 C 8.835938 -52.617188 11.117188 -54.484375 14.015625 -55.671875 C 16.910156 -56.867188 20.132812 -57.46875 23.6875 -57.46875 C 27.300781 -57.46875 30.539062 -56.867188 33.40625 -55.671875 C 36.269531 -54.484375 38.535156 -52.617188 40.203125 -50.078125 C 41.867188 -47.546875 42.703125 -44.289062 42.703125 -40.3125 C 42.703125 -36.320312 41.867188 -33.054688 40.203125 -30.515625 C 38.535156 -27.984375 36.269531 -26.117188 33.40625 -24.921875 C 30.539062 -23.734375 27.300781 -23.140625 23.6875 -23.140625 Z M 23.6875 -25.09375 C 26.4375 -25.09375 28.585938 -26.175781 30.140625 -28.34375 C 31.703125 -30.519531 32.484375 -34.507812 32.484375 -40.3125 C 32.484375 -46.101562 31.703125 -50.082031 30.140625 -52.25 C 28.585938 -54.425781 26.4375 -55.515625 23.6875 -55.515625 C 21 -55.515625 18.859375 -54.425781 17.265625 -52.25 C 15.679688 -50.082031 14.890625 -46.101562 14.890625 -40.3125 C 14.890625 -34.507812 15.679688 -30.519531 17.265625 -28.34375 C 18.859375 -26.175781 21 -25.09375 23.6875 -25.09375 Z M 39.328125 -48.453125 L 37.375 -49.21875 C 38.382812 -51.675781 40.117188 -53.847656 42.578125 -55.734375 C 45.046875 -57.617188 47.617188 -58.5625 50.296875 -58.5625 C 52.179688 -58.5625 53.703125 -58.035156 54.859375 -56.984375 C 56.023438 -55.929688 56.609375 -54.351562 56.609375 -52.25 C 56.609375 -50.007812 56.007812 -48.4375 54.8125 -47.53125 C 53.613281 -46.625 52.398438 -46.171875 51.171875 -46.171875 C 50.085938 -46.171875 49.070312 -46.550781 48.125 -47.3125 C 47.1875 -48.070312 46.644531 -49.285156 46.5 -50.953125 C 46.351562 -52.617188 46.859375 -54.753906 48.015625 -57.359375 L 49.4375 -57.03125 C 46.394531 -55.875 44.21875 -54.660156 42.90625 -53.390625 C 41.601562 -52.128906 40.410156 -50.484375 39.328125 -48.453125 Z M 39.328125 -48.453125 "/></g></g></g><g fill="#c8bc8a" fill-opacity="1"><g transform="translate(866.254364, 186.749967)"><g><path d="M 15.53125 -83.109375 C 17.414062 -83.109375 19.046875 -82.421875 20.421875 -81.046875 C 21.796875 -79.671875 22.484375 -78.039062 22.484375 -76.15625 C 22.484375 -74.269531 21.796875 -72.640625 20.421875 -71.265625 C 19.046875 -69.890625 17.414062 -69.203125 15.53125 -69.203125 C 13.65625 -69.203125 12.023438 -69.890625 10.640625 -71.265625 C 9.265625 -72.640625 8.578125 -74.269531 8.578125 -76.15625 C 8.578125 -78.039062 9.265625 -79.671875 10.640625 -81.046875 C 12.023438 -82.421875 13.65625 -83.109375 15.53125 -83.109375 Z M 21.1875 -57.140625 L 21.1875 -10.109375 C 21.1875 -7.066406 21.816406 -5 23.078125 -3.90625 C 24.347656 -2.820312 26.46875 -2.28125 29.4375 -2.28125 L 29.4375 0 C 28.207031 -0.0703125 26.34375 -0.160156 23.84375 -0.265625 C 21.34375 -0.378906 18.828125 -0.4375 16.296875 -0.4375 C 13.835938 -0.4375 11.335938 -0.378906 8.796875 -0.265625 C 6.265625 -0.160156 4.382812 -0.0703125 3.15625 0 L 3.15625 -2.28125 C 6.125 -2.28125 8.238281 -2.820312 9.5 -3.90625 C 10.769531 -5 11.40625 -7.066406 11.40625 -10.109375 L 11.40625 -44.109375 C 11.40625 -47.367188 10.828125 -49.773438 9.671875 -51.328125 C 8.515625 -52.890625 6.34375 -53.671875 3.15625 -53.671875 L 3.15625 -55.953125 C 5.46875 -55.734375 7.710938 -55.625 9.890625 -55.625 C 11.984375 -55.625 13.988281 -55.75 15.90625 -56 C 17.832031 -56.257812 19.59375 -56.640625 21.1875 -57.140625 Z M 21.1875 -57.140625 "/></g></g></g><g fill="#c8bc8a" fill-opacity="1"><g transform="translate(902.10348, 186.749967)"><g><path d="M 20.640625 -73.984375 L 20.640625 -55.84375 L 36.71875 -55.84375 L 36.71875 -53.671875 L 20.640625 -53.671875 L 20.640625 -11.625 C 20.640625 -8.21875 21.253906 -5.828125 22.484375 -4.453125 C 23.710938 -3.078125 25.414062 -2.390625 27.59375 -2.390625 C 29.769531 -2.390625 31.65625 -3.273438 33.25 -5.046875 C 34.84375 -6.828125 36.21875 -9.816406 37.375 -14.015625 L 39.546875 -13.46875 C 38.816406 -9.269531 37.382812 -5.722656 35.25 -2.828125 C 33.113281 0.0664062 29.835938 1.515625 25.421875 1.515625 C 22.960938 1.515625 20.9375 1.207031 19.34375 0.59375 C 17.75 -0.0195312 16.332031 -0.90625 15.09375 -2.0625 C 13.507812 -3.726562 12.40625 -5.71875 11.78125 -8.03125 C 11.164062 -10.351562 10.859375 -13.4375 10.859375 -17.28125 L 10.859375 -53.671875 L 0.4375 -53.671875 L 0.4375 -55.84375 L 10.859375 -55.84375 L 10.859375 -72.46875 C 12.671875 -72.539062 14.410156 -72.679688 16.078125 -72.890625 C 17.742188 -73.109375 19.265625 -73.472656 20.640625 -73.984375 Z M 20.640625 -73.984375 "/></g></g></g><g fill="#c8bc8a" fill-opacity="1"><g transform="translate(944.579183, 186.749967)"><g><path d="M 18.578125 0.765625 C 15.609375 0.765625 13.035156 0.203125 10.859375 -0.921875 C 8.691406 -2.046875 7.046875 -3.617188 5.921875 -5.640625 C 4.796875 -7.671875 4.234375 -10.03125 4.234375 -12.71875 C 4.234375 -15.894531 4.972656 -18.5 6.453125 -20.53125 C 7.941406 -22.5625 9.84375 -24.191406 12.15625 -25.421875 C 14.476562 -26.648438 16.925781 -27.679688 19.5 -28.515625 C 22.070312 -29.347656 24.515625 -30.144531 26.828125 -30.90625 C 29.148438 -31.664062 31.050781 -32.550781 32.53125 -33.5625 C 34.019531 -34.582031 34.765625 -35.925781 34.765625 -37.59375 L 34.765625 -44.328125 C 34.765625 -47.367188 34.3125 -49.6875 33.40625 -51.28125 C 32.5 -52.875 31.285156 -53.941406 29.765625 -54.484375 C 28.242188 -55.023438 26.539062 -55.296875 24.65625 -55.296875 C 22.851562 -55.296875 20.914062 -55.039062 18.84375 -54.53125 C 16.78125 -54.03125 15.132812 -52.984375 13.90625 -51.390625 C 15.28125 -51.097656 16.472656 -50.367188 17.484375 -49.203125 C 18.503906 -48.046875 19.015625 -46.566406 19.015625 -44.765625 C 19.015625 -42.953125 18.429688 -41.519531 17.265625 -40.46875 C 16.109375 -39.414062 14.625 -38.890625 12.8125 -38.890625 C 10.71875 -38.890625 9.179688 -39.554688 8.203125 -40.890625 C 7.222656 -42.234375 6.734375 -43.738281 6.734375 -45.40625 C 6.734375 -47.289062 7.203125 -48.8125 8.140625 -49.96875 C 9.085938 -51.132812 10.285156 -52.222656 11.734375 -53.234375 C 13.398438 -54.390625 15.550781 -55.382812 18.1875 -56.21875 C 20.832031 -57.050781 23.820312 -57.46875 27.15625 -57.46875 C 30.125 -57.46875 32.660156 -57.125 34.765625 -56.4375 C 36.867188 -55.75 38.609375 -54.753906 39.984375 -53.453125 C 41.859375 -51.710938 43.085938 -49.59375 43.671875 -47.09375 C 44.253906 -44.59375 44.546875 -41.609375 44.546875 -38.140625 L 44.546875 -7.9375 C 44.546875 -6.125 44.816406 -4.816406 45.359375 -4.015625 C 45.898438 -3.222656 46.75 -2.828125 47.90625 -2.828125 C 48.707031 -2.828125 49.46875 -3.003906 50.1875 -3.359375 C 50.914062 -3.722656 51.785156 -4.304688 52.796875 -5.109375 L 54 -3.265625 C 52.476562 -2.097656 51.023438 -1.132812 49.640625 -0.375 C 48.265625 0.382812 46.421875 0.765625 44.109375 0.765625 C 42.003906 0.765625 40.265625 0.40625 38.890625 -0.3125 C 37.515625 -1.039062 36.484375 -2.113281 35.796875 -3.53125 C 35.109375 -4.945312 34.765625 -6.738281 34.765625 -8.90625 C 32.804688 -5.644531 30.46875 -3.21875 27.75 -1.625 C 25.039062 -0.03125 21.984375 0.765625 18.578125 0.765625 Z M 22.484375 -3.578125 C 24.878906 -3.578125 27.109375 -4.265625 29.171875 -5.640625 C 31.234375 -7.023438 33.097656 -9.09375 34.765625 -11.84375 L 34.765625 -33.140625 C 33.898438 -31.898438 32.632812 -30.863281 30.96875 -30.03125 C 29.300781 -29.207031 27.488281 -28.378906 25.53125 -27.546875 C 23.570312 -26.710938 21.707031 -25.734375 19.9375 -24.609375 C 18.164062 -23.484375 16.695312 -22.015625 15.53125 -20.203125 C 14.375 -18.390625 13.796875 -16.035156 13.796875 -13.140625 C 13.796875 -10.242188 14.570312 -7.925781 16.125 -6.1875 C 17.6875 -4.445312 19.804688 -3.578125 22.484375 -3.578125 Z M 22.484375 -3.578125 "/></g></g></g><g clip-path="url(#5cb521ee83)"><g clip-path="url(#22d7356240)"><g clip-path="url(#b8ff145e71)"><g transform="matrix(1, 0, 0, 1, 85, 75)"><g clip-path="url(#4a7d6fc163)"><g clip-path="url(#6d284c6bdb)"><g clip-path="url(#15d6366ff1)"><g clip-path="url(#0683d25888)"><path fill="#65949a" d="M -31.046875 66.789062 L 88.214844 -30.367188 L 185.371094 88.894531 L 66.109375 186.050781 Z M -31.046875 66.789062 " fill-opacity="1" fill-rule="nonzero"/></g></g></g></g></g></g></g></g><g mask="url(#be9310eee1)"><g transform="matrix(1, 0, 0, 1, 156, 27)"><g clip-path="url(#ec01d181c5)"><g clip-path="url(#8d9b01c59d)"><g clip-path="url(#b7b439b881)"><g clip-path="url(#0b2f8acb05)"><g transform="matrix(1, 0, 0, 1, 49, 48)"><g clip-path="url(#04a99ab0f0)"><g clip-path="url(#afceae42d7)"><g clip-path="url(#cd6a69ec3a)"><g clip-path="url(#8c507f8d34)"><path fill="#e3d9b4" d="M -31.128906 66.789062 L 88.136719 -30.367188 L 185.289062 88.894531 L 66.027344 186.050781 Z M -31.128906 66.789062 " fill-opacity="1" fill-rule="nonzero"/></g></g></g></g></g></g></g></g><g clip-path="url(#1fcba11a2f)"><g clip-path="url(#add604b482)"><g clip-path="url(#370a9a26bc)"><g clip-path="url(#266a1c77fa)"><path stroke-linecap="butt" transform="matrix(0.581478, -0.473691, 0.473691, 0.581478, 17.871712, 114.788968)" fill="none" stroke-linejoin="miter" d="M 102.545203 0.00114609 C 45.915359 -0.000327318 0.00247559 45.911617 0.0017507 102.548789 C -0.00301223 159.182671 45.912222 205.091516 102.546104 205.096279 C 159.179238 205.093715 205.092121 159.18177 205.092846 102.544599 C 205.094319 45.914754 159.182375 0.00187098 102.545203 0.00114609 Z M 102.545203 0.00114609 " stroke="#c9b76a" stroke-width="8" stroke-opacity="1" stroke-miterlimit="4"/></g></g></g></g></g></g></g><g mask="url(#36e375f1b4)"><g transform="matrix(1, 0, 0, 1, 293, 44)"><g clip-path="url(#a6f3578db9)"><g clip-path="url(#40b432a62f)"><g clip-path="url(#c15a91772a)"><g clip-path="url(#8f2225fc41)"><g transform="matrix(1, 0, 0, 1, 32, 31)"><g clip-path="url(#43486ebb7b)"><g clip-path="url(#1bb384d6b2)"><g clip-path="url(#b45be746c4)"><g clip-path="url(#4db5bb177f)"><path fill="#5f5f5d" d="M -31.210938 66.789062 L 88.054688 -30.367188 L 185.210938 88.894531 L 65.945312 186.050781 Z M -31.210938 66.789062 " fill-opacity="1" fill-rule="nonzero"/></g></g></g></g></g></g></g></g></g></g></g></svg>